<?xml version="1.0" encoding="UTF-8"?>
<svg version="1.1" xmlns="http://www.w3.org/2000/svg" width="2000" height="2000">
<path d="M0 0 C660 0 1320 0 2000 0 C2000 660 2000 1320 2000 2000 C1340 2000 680 2000 0 2000 C0 1340 0 680 0 0 Z " fill="#F3F3F4" transform="translate(0,0)"/>
<path d="M0 0 C0.76151367 0.00060425 1.52302734 0.0012085 2.30761719 0.00183105 C20.40282295 0.04052022 38.08270255 1.50788532 56 4.0625 C57.57974609 4.28631348 57.57974609 4.28631348 59.19140625 4.51464844 C74.50814188 6.83781336 89.16270534 10.91406861 103.8125 15.875 C104.59686432 16.13894562 105.38122864 16.40289124 106.18936157 16.67483521 C156.21048663 33.55372068 199.01286348 60.87825044 237.0625 97.1875 C237.93003906 98.0125 238.79757812 98.8375 239.69140625 99.6875 C244.4004752 104.27372367 248.59832594 109.13456184 252.69921875 114.26953125 C254.71343879 116.75651038 256.78834677 119.17021859 258.89941406 121.57470703 C270.03042522 134.35162693 279.59471389 148.58451083 287.97949219 163.29492188 C289.11817766 165.28479785 290.28163492 167.25902529 291.4453125 169.234375 C306.10160859 194.47095584 316.57841917 222.06322844 323.38330078 250.39208984 C324.0283225 253.04683415 324.71099061 255.6890405 325.40234375 258.33203125 C335.25927474 297.11642965 336.4655385 339.76075657 330.0625 379.1875 C329.91264648 380.1686377 329.76279297 381.14977539 329.60839844 382.16064453 C322.85462563 426.20356 306.65668155 466.83354093 283.93603516 505.01660156 C280.78095395 510.35647577 277.7091861 515.7439853 274.625 521.125 C269.09173019 530.75053915 263.42599714 540.28825269 257.68774414 549.79272461 C253.22220101 557.2070029 248.86821043 564.67941743 244.5625 572.1875 C239.05720512 581.78735794 233.42064483 591.2977322 227.70068359 600.77099609 C222.44039549 609.50508535 217.33861609 618.32540445 212.26123047 627.16674805 C208.45046717 633.79771692 204.57617327 640.3783438 200.6171875 646.921875 C196.95982163 652.99806876 193.39470503 659.12931893 189.8125 665.25 C184.74595825 673.9058578 179.67218351 682.55700124 174.5625 691.1875 C169.53908665 699.67383175 164.54615984 708.17779056 159.5625 716.6875 C154.06593649 726.0730038 148.55284604 735.44837451 143.01123047 744.80737305 C139.9971091 749.9017872 136.99589921 755.00355524 134.0078125 760.11328125 C133.48074203 761.01446434 133.48074203 761.01446434 132.94302368 761.93385315 C132.58783661 762.54115768 132.23264954 763.14846222 131.86669922 763.77416992 C131.14031758 765.01612387 130.41391775 766.25806718 129.6875 767.5 C129.14709076 768.42397079 129.14709076 768.42397079 128.59576416 769.36660767 C123.59988637 777.90424737 118.54659874 786.40443974 113.4375 794.875 C107.73282489 804.33488923 102.1826115 813.87516031 96.68701172 823.45776367 C91.79446427 831.96906301 86.76159745 840.38899485 81.6875 848.79296875 C77.22218479 856.20725255 72.86815503 863.67951404 68.5625 871.1875 C63.05720512 880.78735794 57.42064483 890.2977322 51.70068359 899.77099609 C46.44039549 908.50508535 41.33861609 917.32540445 36.26123047 926.16674805 C32.45046717 932.79771692 28.57617327 939.3783438 24.6171875 945.921875 C20.95982163 951.99806876 17.39470503 958.12931893 13.8125 964.25 C8.74595825 972.9058578 3.67218351 981.55700124 -1.4375 990.1875 C-6.46091335 998.67383175 -11.45384016 1007.17779056 -16.4375 1015.6875 C-21.93489015 1025.0744153 -27.44958825 1034.45073065 -32.9909668 1043.81176758 C-37.43242324 1051.32012332 -41.84261467 1058.8466238 -46.25 1066.375 C-52.43591553 1076.94098756 -58.66054613 1087.48303948 -64.91064453 1098.01123047 C-70.20864511 1106.94207121 -75.46613445 1115.89612728 -80.71240234 1124.85742188 C-85.27099027 1132.64389379 -89.8412975 1140.42314659 -94.4375 1148.1875 C-99.46085315 1156.67386833 -104.45374783 1165.17784389 -109.4375 1173.6875 C-117.08425306 1186.74330996 -124.77287492 1199.7739656 -132.48046875 1212.79394531 C-139.52888487 1224.7025728 -146.54655756 1236.62883482 -153.53991699 1248.56985474 C-158.66800532 1257.32542945 -163.81580508 1266.06903056 -168.984375 1274.80078125 C-173.48969104 1282.41744178 -177.96532815 1290.05135694 -182.4375 1297.6875 C-190.08425306 1310.74330996 -197.77287492 1323.7739656 -205.48046875 1336.79394531 C-212.52888487 1348.7025728 -219.54655756 1360.62883482 -226.53991699 1372.56985474 C-231.66800532 1381.32542945 -236.81580508 1390.06903056 -241.984375 1398.80078125 C-246.48969072 1406.41744124 -250.96541089 1414.0513089 -255.4375 1421.6875 C-260.93406351 1431.0730038 -266.44715396 1440.44837451 -271.98876953 1449.80737305 C-275.0028909 1454.9017872 -278.00410079 1460.00355524 -280.9921875 1465.11328125 C-281.34356781 1465.71406998 -281.69494812 1466.3148587 -282.05697632 1466.93385315 C-282.41216339 1467.54115768 -282.76735046 1468.14846222 -283.13330078 1468.77416992 C-283.85968242 1470.01612387 -284.58608225 1471.25806718 -285.3125 1472.5 C-285.85290924 1473.42397079 -285.85290924 1473.42397079 -286.40423584 1474.36660767 C-291.40011363 1482.90424737 -296.45340126 1491.40443974 -301.5625 1499.875 C-307.26717511 1509.33488923 -312.8173885 1518.87516031 -318.31298828 1528.45776367 C-323.20390087 1536.96621893 -328.23388206 1545.3840949 -333.30810547 1553.78417969 C-337.82450486 1561.28048362 -342.21378176 1568.84291011 -346.5625 1576.4375 C-356.23081961 1593.27176537 -366.08364618 1609.7904215 -377.9375 1625.1875 C-378.38834961 1625.78111328 -378.83919922 1626.37472656 -379.30371094 1626.98632812 C-384.97878021 1634.45373652 -390.91282368 1641.55620801 -397.33203125 1648.39453125 C-399.69498677 1650.92753454 -401.97488945 1653.51345905 -404.25 1656.125 C-413.20608098 1666.09044252 -423.42671365 1674.91081802 -433.9375 1683.1875 C-434.87207031 1683.9403125 -435.80664062 1684.693125 -436.76953125 1685.46875 C-500.55155408 1735.90485534 -577.60550068 1757.49496686 -657.9375 1756.1875 C-658.8867334 1756.17348145 -659.8359668 1756.15946289 -660.81396484 1756.14501953 C-725.96992442 1754.85123692 -795.62719683 1727.24855524 -845.9375 1686.1875 C-846.86304688 1685.45273438 -847.78859375 1684.71796875 -848.7421875 1683.9609375 C-855.2116664 1678.7743581 -861.33393042 1673.25353579 -867.39941406 1667.60791016 C-868.96025698 1666.16648411 -870.5359711 1664.74324669 -872.1171875 1663.32421875 C-876.99824225 1658.93459609 -881.76924058 1654.55431636 -885.98828125 1649.5078125 C-887.56045263 1647.63632994 -889.16082024 1645.81061097 -890.79296875 1643.9921875 C-899.22783948 1634.5383391 -906.71829918 1624.59219674 -913.9375 1614.1875 C-914.62005859 1613.21296875 -914.62005859 1613.21296875 -915.31640625 1612.21875 C-922.25781268 1602.27285421 -928.2646799 1591.90256146 -933.9375 1581.1875 C-934.29054199 1580.52137695 -934.64358398 1579.85525391 -935.00732422 1579.16894531 C-953.14645626 1544.62731427 -964.32835501 1507.71007622 -969.9375 1469.1875 C-970.03319275 1468.54322052 -970.1288855 1467.89894104 -970.22747803 1467.23513794 C-972.11820781 1454.11100276 -972.24578646 1441.04399679 -972.19824219 1427.80200195 C-972.18752753 1424.25910288 -972.1981942 1420.71671186 -972.2109375 1417.17382812 C-972.22301506 1399.65861528 -971.22621697 1382.72126492 -967.5625 1365.5625 C-967.22835083 1363.96281372 -967.22835083 1363.96281372 -966.88745117 1362.33081055 C-966.44370693 1360.2222691 -965.99527835 1358.11470642 -965.54150391 1356.00830078 C-965.03278236 1353.63248478 -964.54805327 1351.25401727 -964.07421875 1348.87109375 C-955.58973961 1309.02218936 -936.70831296 1273.08110628 -915.7578125 1238.5390625 C-911.88903903 1232.14245337 -908.15353658 1225.67370821 -904.4375 1219.1875 C-898.90023143 1209.53247909 -893.23487899 1199.96400694 -887.48779297 1190.43261719 C-881.49679633 1180.48559646 -875.65335567 1170.45574713 -869.81787109 1160.41699219 C-866.34862297 1154.45864186 -862.8621127 1148.51040759 -859.375 1142.5625 C-859.01279358 1141.94459595 -858.65058716 1141.32669189 -858.27740479 1140.69006348 C-853.16712275 1131.97351364 -848.03710083 1123.26882027 -842.89038086 1114.57373047 C-838.38506274 1106.95728211 -833.90958002 1099.32348626 -829.4375 1091.6875 C-821.79074694 1078.63169004 -814.10212508 1065.6010344 -806.39453125 1052.58105469 C-799.34611513 1040.6724272 -792.32844244 1028.74616518 -785.33508301 1016.80514526 C-780.20699468 1008.04957055 -775.05919492 999.30596944 -769.890625 990.57421875 C-765.38530896 982.95755822 -760.90967185 975.32364306 -756.4375 967.6875 C-748.79074694 954.63169004 -741.10212508 941.6010344 -733.39453125 928.58105469 C-726.34611513 916.6724272 -719.32844244 904.74616518 -712.33508301 892.80514526 C-707.20699468 884.04957055 -702.05919492 875.30596944 -696.890625 866.57421875 C-692.38530928 858.95755876 -687.90958911 851.3236911 -683.4375 843.6875 C-677.94093649 834.3019962 -672.42784604 824.92662549 -666.88623047 815.56762695 C-663.8721091 810.4732128 -660.87089921 805.37144476 -657.8828125 800.26171875 C-657.53143219 799.66093002 -657.18005188 799.0601413 -656.81802368 798.44114685 C-656.46283661 797.83384232 -656.10764954 797.22653778 -655.74169922 796.60083008 C-655.01531758 795.35887613 -654.28891775 794.11693282 -653.5625 792.875 C-653.02209076 791.95102921 -653.02209076 791.95102921 -652.47076416 791.00839233 C-647.47488637 782.47075263 -642.42159874 773.97056026 -637.3125 765.5 C-631.60782489 756.04011077 -626.0576115 746.49983969 -620.56201172 736.91723633 C-615.66946427 728.40593699 -610.63659745 719.98600515 -605.5625 711.58203125 C-601.09718389 704.16774596 -596.74321751 696.69545122 -592.4375 689.1875 C-586.8997654 679.53274019 -581.23488537 669.96401752 -575.48779297 660.43261719 C-569.49679633 650.48559646 -563.65335567 640.45574713 -557.81787109 630.41699219 C-554.34862297 624.45864186 -550.8621127 618.51040759 -547.375 612.5625 C-547.01279358 611.94459595 -546.65058716 611.32669189 -546.27740479 610.69006348 C-541.16712275 601.97351364 -536.03710083 593.26882027 -530.89038086 584.57373047 C-526.38506307 576.95728266 -521.90949729 569.3235343 -517.4375 561.6875 C-511.94093649 552.3019962 -506.42784604 542.92662549 -500.88623047 533.56762695 C-497.8721091 528.4732128 -494.87089921 523.37144476 -491.8828125 518.26171875 C-491.53143219 517.66093002 -491.18005188 517.0601413 -490.81802368 516.44114685 C-490.46283661 515.83384232 -490.10764954 515.22653778 -489.74169922 514.60083008 C-489.01531758 513.35887613 -488.28891775 512.11693282 -487.5625 510.875 C-487.20222717 510.25901947 -486.84195435 509.64303894 -486.47076416 509.00839233 C-481.47488637 500.47075263 -476.42159874 491.97056026 -471.3125 483.5 C-465.60782489 474.04011077 -460.0576115 464.49983969 -454.56201172 454.91723633 C-449.66946427 446.40593699 -444.63659745 437.98600515 -439.5625 429.58203125 C-435.09718389 422.16774596 -430.74321751 414.69545122 -426.4375 407.1875 C-420.8997654 397.53274019 -415.23488537 387.96401752 -409.48779297 378.43261719 C-403.49679633 368.48559646 -397.65335567 358.45574713 -391.81787109 348.41699219 C-388.34862297 342.45864186 -384.8621127 336.51040759 -381.375 330.5625 C-381.01279358 329.94459595 -380.65058716 329.32669189 -380.27740479 328.69006348 C-375.16712275 319.97351364 -370.03710083 311.26882027 -364.89038086 302.57373047 C-360.38506274 294.95728211 -355.90958002 287.32348626 -351.4375 279.6875 C-343.79074694 266.63169004 -336.10212508 253.6010344 -328.39453125 240.58105469 C-321.34849029 228.67644015 -314.33326877 216.75414778 -307.34213257 204.81723022 C-302.05114823 195.78380985 -296.74507762 186.75958191 -291.40942383 177.75244141 C-288.99067982 173.66848959 -286.579733 169.58066644 -284.1953125 165.4765625 C-265.47884259 133.28759713 -241.33254271 101.35079028 -211.70263672 78.37133789 C-208.90447527 76.16141787 -206.20428546 73.86195361 -203.49609375 71.54296875 C-196.92531036 66.01344863 -189.96884646 61.17291035 -182.8125 56.4375 C-181.84438889 55.79402115 -181.84438889 55.79402115 -180.85671997 55.13754272 C-161.60656658 42.38515979 -141.45577554 31.61129052 -119.9375 23.1875 C-119.02871094 22.82350098 -118.11992188 22.45950195 -117.18359375 22.08447266 C-92.01350362 12.09173914 -64.95303497 4.82573164 -37.93164062 2.43359375 C-35.94565238 2.2351718 -35.94565238 2.2351718 -34.09594727 1.69458008 C-23.29647133 -0.8425211 -11.05012298 -0.01639664 0 0 Z " fill="#1B17FE" transform="translate(1641.9375,121.8125)"/>
<path d="M0 0 C1.11221924 -0.00067474 2.22443848 -0.00134949 3.37036133 -0.00204468 C19.32502276 0.01332618 34.82751757 0.39511812 50.5625 3.25 C52.12750244 3.51538574 52.12750244 3.51538574 53.72412109 3.78613281 C87.58691849 9.55531324 119.72818968 20.08020965 150.5625 35.25 C151.3359375 35.62979004 152.109375 36.00958008 152.90625 36.40087891 C180.39635415 50.06616059 205.53814975 67.89522778 227.94921875 88.8203125 C230.21975606 90.93133523 232.52529436 92.97826474 234.875 95 C240.59624921 99.97654115 245.7495521 105.35624431 250.69140625 111.1015625 C252.71099276 113.42050317 254.79215234 115.67528585 256.875 117.9375 C262.12633874 123.78116146 266.90938782 129.92804344 271.5625 136.25 C272.07941406 136.94818848 272.59632813 137.64637695 273.12890625 138.36572266 C298.02609802 172.23149503 316.69746255 210.62454001 327.5625 251.25 C327.94100098 252.63759521 327.94100098 252.63759521 328.32714844 254.05322266 C335.79730705 281.80546212 338.75046158 310.11377408 338.74780273 338.80004883 C338.74998292 341.4169967 338.76820523 344.03351703 338.78710938 346.65039062 C338.84531793 364.17486148 337.05209529 381.40850595 334.01757812 398.65966797 C333.70412626 400.44385482 333.39859631 402.22944555 333.09960938 404.01611328 C328.69310795 430.02939408 320.34240813 455.19328805 309.5625 479.25 C309.12212402 480.23629395 308.68174805 481.22258789 308.22802734 482.23876953 C294.5493459 512.53169641 276.43815215 541.2940774 253.828125 565.7734375 C251.94130336 567.83592874 250.10809182 569.92788158 248.28125 572.04296875 C244.60990874 576.24803787 240.76112629 580.24320334 236.8125 584.1875 C235.76642578 585.23345337 235.76642578 585.23345337 234.69921875 586.30053711 C229.97808668 590.97004539 225.14575642 595.28334444 219.921875 599.38671875 C217.80131371 601.06140043 215.80752679 602.80475119 213.8125 604.625 C179.28256291 635.02255111 133.69225108 656.88661019 89.59472656 668.70117188 C87.4295201 669.28591288 85.2737981 669.89998196 83.1171875 670.515625 C74.56970485 672.91248572 65.98799876 674.86835758 57.25 676.4375 C56.41130371 676.59226807 55.57260742 676.74703613 54.70849609 676.90649414 C35.29671701 680.21495213 15.70686778 680.65778864 -3.9375 680.625 C-5.16873596 680.62445618 -6.39997192 680.62391235 -7.66851807 680.62335205 C-26.2459662 680.58567327 -44.18203433 679.95752425 -62.4375 676.25 C-63.52901367 676.03569336 -64.62052734 675.82138672 -65.74511719 675.60058594 C-112.83062863 666.14494537 -156.96297638 647.50291198 -196.4375 620.25 C-197.03159668 619.84281738 -197.62569336 619.43563477 -198.23779297 619.01611328 C-210.80867167 610.36913233 -222.18536177 600.53766924 -233.4375 590.25 C-234.50110431 589.29144717 -235.564918 588.33312664 -236.62890625 587.375 C-242.48323749 582.07396146 -248.06239264 576.69802068 -253.26171875 570.73828125 C-255.59992198 568.06424991 -258.01667482 565.4743192 -260.4375 562.875 C-265.51334114 557.27756169 -270.04566713 551.39155438 -274.4375 545.25 C-274.96923828 544.51040039 -275.50097656 543.77080078 -276.04882812 543.00878906 C-288.84747751 525.15503067 -299.60215207 506.8967905 -309.4375 487.25 C-309.8396875 486.45062012 -310.241875 485.65124023 -310.65625 484.82763672 C-322.83225967 460.26951305 -331.33170981 433.12030261 -336.4375 406.25 C-336.63279297 405.22874023 -336.82808594 404.20748047 -337.02929688 403.15527344 C-337.60350581 400.08605901 -338.15321283 397.01390351 -338.6875 393.9375 C-338.83896484 393.06843018 -338.99042969 392.19936035 -339.14648438 391.30395508 C-341.84496554 374.62923405 -342.8792961 357.81237495 -342.875 340.9375 C-342.87660126 339.57276047 -342.87660126 339.57276047 -342.87823486 338.18045044 C-342.82995119 309.1999005 -339.22445892 280.19513482 -331.4375 252.25 C-331.13972656 251.1765332 -330.84195312 250.10306641 -330.53515625 248.99707031 C-317.85754943 204.11255572 -296.31300204 161.96008579 -266.75 125.85498047 C-265.47795803 124.29947379 -264.2230444 122.7300089 -262.96875 121.16015625 C-256.1206125 112.76470845 -248.50889242 105.10991913 -240.875 97.4375 C-240.34428894 96.90152191 -239.81357788 96.36554382 -239.26678467 95.81332397 C-232.32629916 88.81967674 -225.1789277 82.36625733 -217.4375 76.25 C-216.15913522 75.20204625 -214.88281394 74.15159023 -213.609375 73.09765625 C-200.67965705 62.52668828 -186.86779588 53.62313465 -172.4375 45.25 C-171.76944336 44.85844727 -171.10138672 44.46689453 -170.41308594 44.06347656 C-149.7808627 32.02558797 -128.0821871 22.78752043 -105.4375 15.25 C-104.67453613 14.99524902 -103.91157227 14.74049805 -103.12548828 14.47802734 C-86.00624452 8.86758609 -68.06053654 5.02635761 -50.25 2.4375 C-49.1057959 2.27000244 -49.1057959 2.27000244 -47.93847656 2.09912109 C-32.04793273 -0.02164753 -16.00011539 0.00875702 0 0 Z " fill="#1B17FE" transform="translate(342.4375,120.75)"/>
</svg>
